#N canvas 194 144 1052 687 12;
#N canvas 0 23 450 300 decayenv 0;
#X obj 57 146 line~ 5;
#X obj 57 69 bng 15 250 50 0 empty empty empty 17 7 0 10 -262144 -1
-1;
#X msg 23 112 1 5;
#X obj 57 89 del 10;
#X obj 57 112 pack 0 500;
#X obj 57 181 pow~ 2;
#X obj 57 31 inlet;
#X obj 124 30 inlet;
#X obj 173 30 inlet;
#X obj 57 217 outlet~;
#X connect 0 0 5 0;
#X connect 1 0 2 0;
#X connect 1 0 3 0;
#X connect 2 0 0 0;
#X connect 3 0 4 0;
#X connect 4 0 0 0;
#X connect 5 0 9 0;
#X connect 6 0 1 0;
#X connect 7 0 4 1;
#X connect 8 0 5 1;
#X restore 533 425 pd decayenv;
#X obj 414 530 *~;
#X obj 417 597 dac~;
#X obj 335 285 +~;
#N canvas 0 23 450 300 decayenv 0;
#X obj 57 146 line~ 5;
#X obj 57 69 bng 15 250 50 0 empty empty empty 17 7 0 10 -262144 -1
-1;
#X msg 23 112 1 5;
#X obj 57 89 del 10;
#X obj 57 112 pack 0 500;
#X obj 57 181 pow~ 2;
#X obj 57 31 inlet;
#X obj 124 30 inlet;
#X obj 173 30 inlet;
#X obj 57 217 outlet~;
#X connect 0 0 5 0;
#X connect 1 0 2 0;
#X connect 1 0 3 0;
#X connect 2 0 0 0;
#X connect 3 0 4 0;
#X connect 4 0 0 0;
#X connect 5 0 9 0;
#X connect 6 0 1 0;
#X connect 7 0 4 1;
#X connect 8 0 5 1;
#X restore 413 206 pd decayenv;
#X obj 416 150 bng 15 250 50 0 empty empty empty 17 7 0 10 -262144
-1 -1;
#X obj 362 254 *~ 200;
#X obj 336 321 osc~ 100;
#X obj 328 447 clip~ -1 1;
#X obj 351 480 lop~ 1000;
#X obj 319 415 *~ 8;
#X obj 64 96 r Knob1 @hv_param;
#X obj 64 119 * 300;
#X msg 457 175 200;
#X floatatom 233 115 5 0 0 0 - - -;
#X obj 261 49 r Button1 @hv_param;
#X msg 501 175 3;
#X obj 743 87 r Encoder @hv_param;
#X obj 741 185 f;
#X floatatom 769 213 5 0 0 0 - - -;
#X msg 765 125 1;
#X msg 799 125 -1;
#X msg 662 141 0;
#X obj 769 184 + 0;
#X obj 743 160 * 25;
#X obj 735 335 r Knob2 @hv_param;
#X obj 735 358 * 2000;
#X obj 735 381 + 20;
#X msg 617 360 3;
#X obj 601 86 loadbang;
#X obj 815 541 bng 15 250 50 0 empty empty empty 17 7 0 10 -262144
-1 -1;
#X obj 815 569 tgl 15 0 empty empty empty 17 7 0 10 -262144 -1 -1 0
1;
#X obj 815 589 * 5000;
#X obj 815 612 + 1000;
#X obj 808 513 r Button2 @hv_param;
#X text 165 152 pitch;
#X text 349 80 trigger;
#X text 804 152 pitch amt;
#X text 793 376 decay;
#X text 839 558 tone button;
#X connect 0 0 1 1;
#X connect 1 0 2 0;
#X connect 1 0 2 1;
#X connect 3 0 7 0;
#X connect 4 0 6 0;
#X connect 5 0 4 0;
#X connect 5 0 0 0;
#X connect 6 0 3 1;
#X connect 7 0 10 0;
#X connect 8 0 9 0;
#X connect 9 0 1 0;
#X connect 10 0 8 0;
#X connect 11 0 12 0;
#X connect 12 0 3 0;
#X connect 13 0 4 1;
#X connect 14 0 12 0;
#X connect 15 0 5 0;
#X connect 16 0 4 2;
#X connect 17 0 24 0;
#X connect 18 0 23 1;
#X connect 19 0 6 1;
#X connect 20 0 24 0;
#X connect 21 0 24 0;
#X connect 22 0 18 0;
#X connect 23 0 18 0;
#X connect 23 0 19 0;
#X connect 24 0 23 0;
#X connect 25 0 26 0;
#X connect 26 0 27 0;
#X connect 27 0 0 1;
#X connect 28 0 0 2;
#X connect 29 0 13 0;
#X connect 29 0 16 0;
#X connect 29 0 28 0;
#X connect 29 0 22 0;
#X connect 30 0 31 0;
#X connect 31 0 32 0;
#X connect 32 0 33 0;
#X connect 33 0 9 1;
#X connect 34 0 30 0;
